<?xml version="1.0" encoding="UTF-8" standalone="no"?>
<!-- Created with Inkscape (http://www.inkscape.org/) -->

<svg
   width="209.69231mm"
   height="186.95552mm"
   viewBox="0 0 209.6923 186.95552"
   version="1.1"
   id="svg5"
   inkscape:version="1.1.2 (b8e25be833, 2022-02-05)"
   sodipodi:docname="waves2.svg"
   xmlns:inkscape="http://www.inkscape.org/namespaces/inkscape"
   xmlns:sodipodi="http://sodipodi.sourceforge.net/DTD/sodipodi-0.dtd"
   xmlns="http://www.w3.org/2000/svg"
   xmlns:svg="http://www.w3.org/2000/svg">
  <sodipodi:namedview
     id="namedview7"
     pagecolor="#ffffff"
     bordercolor="#666666"
     borderopacity="1.0"
     inkscape:pageshadow="2"
     inkscape:pageopacity="0.0"
     inkscape:pagecheckerboard="0"
     inkscape:document-units="mm"
     showgrid="false"
     inkscape:zoom="0.54047838"
     inkscape:cx="-8.3259575"
     inkscape:cy="426.47404"
     inkscape:window-width="1920"
     inkscape:window-height="1051"
     inkscape:window-x="-9"
     inkscape:window-y="-9"
     inkscape:window-maximized="1"
     inkscape:current-layer="layer1" />
  <defs
     id="defs2" />
  <g
     inkscape:label="Layer 1"
     inkscape:groupmode="layer"
     id="layer1"
     transform="translate(-0.20160438,-2.9918775)">
    <g
       id="g882"
       transform="matrix(0.21842949,0,0,0.21509696,0.20160438,98.918329)">
      <path
         d="m 0,262 26.7,27.5 c 26.6,27.5 80,82.5 133.3,92 53.3,9.5 106.7,-26.5 160,-45 53.3,-18.5 106.7,-19.5 160,6.8 53.3,26.4 106.7,80 160,79.9 53.3,-0.2 106.7,-54.2 160,-97.4 53.3,-43.1 106.7,-75.5 133.3,-91.6 L 960,218 V 0 H 933.3 C 906.7,0 853.3,0 800,0 746.7,0 693.3,0 640,0 586.7,0 533.3,0 480,0 426.7,0 373.3,0 320,0 266.7,0 213.3,0 160,0 106.7,0 53.3,0 26.7,0 H 0 Z"
         fill="#008080"
         id="path868" />
      <path
         d="m 0,141 26.7,32 c 26.6,32 80,96 133.3,100.7 53.3,4.6 106.7,-50 160,-46.9 53.3,3.2 106.7,64.2 160,55.7 53.3,-8.5 106.7,-86.5 160,-107.7 53.3,-21.1 106.7,14.5 160,52.9 53.3,38.3 106.7,79.3 133.3,99.8 L 960,348 V 0 H 933.3 C 906.7,0 853.3,0 800,0 746.7,0 693.3,0 640,0 586.7,0 533.3,0 480,0 426.7,0 373.3,0 320,0 266.7,0 213.3,0 160,0 106.7,0 53.3,0 26.7,0 H 0 Z"
         fill="#004f5f"
         id="path870" />
      <path
         d="M 0,141 26.7,126.5 C 53.3,112 106.7,83 160,69.8 213.3,56.7 266.7,59.3 320,87.3 c 53.3,28 106.7,81.4 160,84.5 53.3,3.2 106.7,-43.8 160,-43 53.3,0.9 106.7,49.5 160,74 53.3,24.5 106.7,24.9 133.3,25 L 960,228 V 0 H 933.3 C 906.7,0 853.3,0 800,0 746.7,0 693.3,0 640,0 586.7,0 533.3,0 480,0 426.7,0 373.3,0 320,0 266.7,0 213.3,0 160,0 106.7,0 53.3,0 26.7,0 H 0 Z"
         fill="#002233"
         id="path872" />
    </g>
    <g
       id="g909"
       transform="matrix(0.21842949,0,0,0.22465211,0.20160438,-22.618463)">
      <path
         d="m 0,114 26.7,32.7 c 26.6,32.6 80,98 133.3,124.3 53.3,26.3 106.7,13.7 160,-5.2 C 373.3,247 426.7,222 480,213 c 53.3,-9 106.7,-2 160,11.2 53.3,13.1 106.7,32.5 160,23.1 C 853.3,238 906.7,200 933.3,181 L 960,162 v 379 h -26.7 c -26.6,0 -80,0 -133.3,0 -53.3,0 -106.7,0 -160,0 -53.3,0 -106.7,0 -160,0 -53.3,0 -106.7,0 -160,0 -53.3,0 -106.7,0 -160,0 -53.3,0 -106.7,0 -133.3,0 H 0 Z"
         fill="#008080"
         id="path895" />
      <path
         d="M 0,384 26.7,352.5 C 53.3,321 106.7,258 160,253.7 c 53.3,-4.4 106.7,50 160,80.6 53.3,30.7 106.7,37.7 160,28.7 53.3,-9 106.7,-34 160,-49 53.3,-15 106.7,-20 160,-20.5 53.3,-0.5 106.7,3.5 133.3,5.5 l 26.7,2 v 240 h -26.7 c -26.6,0 -80,0 -133.3,0 -53.3,0 -106.7,0 -160,0 -53.3,0 -106.7,0 -160,0 -53.3,0 -106.7,0 -160,0 -53.3,0 -106.7,0 -160,0 -53.3,0 -106.7,0 -133.3,0 H 0 Z"
         fill="#004f5f"
         id="path897" />
      <path
         d="m 0,463 26.7,-19.2 c 26.6,-19.1 80,-57.5 133.3,-72.1 53.3,-14.7 106.7,-5.7 160,-0.4 53.3,5.4 106.7,7 160,26.4 53.3,19.3 106.7,56.3 160,60.6 53.3,4.4 106.7,-24 160,-48.5 53.3,-24.5 106.7,-45.1 133.3,-55.5 L 960,344 v 197 h -26.7 c -26.6,0 -80,0 -133.3,0 -53.3,0 -106.7,0 -160,0 -53.3,0 -106.7,0 -160,0 -53.3,0 -106.7,0 -160,0 -53.3,0 -106.7,0 -160,0 -53.3,0 -106.7,0 -133.3,0 H 0 Z"
         fill="#002233"
         id="path899" />
    </g>
    <rect
       style="fill:#002233;fill-opacity:1;fill-rule:evenodd;stroke:none;stroke-width:1.41839;stroke-linecap:round;stroke-opacity:1;paint-order:markers fill stroke"
       id="rect1176"
       width="209.6662"
       height="11.014547"
       x="0.22211298"
       y="93.011742" />
  </g>
</svg>
